<?xml version="1.0" encoding="utf-8"?>
<svg xmlns="http://www.w3.org/2000/svg" data-stacking-context="true" aria-owns="w-full1" width="542" height="404.03125" viewBox="1080.644 640.992 400.549 399.439">
  <style>@font-face { font-family: __Montserrat_337041; font-style: normal; font-weight: 100; font-display: swap; src: url("https://www.element-to-svg.com/_next/static/media/b1f344208eb4edfe-s.woff2") format("woff2"); unicode-range: U+460-52F, U+1C80-1C8A, U+20B4, U+2DE0-2DFF, U+A640-A69F, U+FE2E-FE2F; }
@font-face { font-family: __Montserrat_337041; font-style: normal; font-weight: 100; font-display: swap; src: url("https://www.element-to-svg.com/_next/static/media/48e2044251ef3125-s.woff2") format("woff2"); unicode-range: U+301, U+400-45F, U+490-491, U+4B0-4B1, U+2116; }
@font-face { font-family: __Montserrat_337041; font-style: normal; font-weight: 100; font-display: swap; src: url("https://www.element-to-svg.com/_next/static/media/bf24a9759715e608-s.woff2") format("woff2"); unicode-range: U+102-103, U+110-111, U+128-129, U+168-169, U+1A0-1A1, U+1AF-1B0, U+300-301, U+303-304, U+308-309, U+323, U+329, U+1EA0-1EF9, U+20AB; }
@font-face { font-family: __Montserrat_337041; font-style: normal; font-weight: 100; font-display: swap; src: url("https://www.element-to-svg.com/_next/static/media/1f173e5e25f3efee-s.woff2") format("woff2"); unicode-range: U+100-2BA, U+2BD-2C5, U+2C7-2CC, U+2CE-2D7, U+2DD-2FF, U+304, U+308, U+329, U+1D00-1DBF, U+1E00-1E9F, U+1EF2-1EFF, U+2020, U+20A0-20AB, U+20AD-20C0, U+2113, U+2C60-2C7F, U+A720-A7FF; }
@font-face { font-family: __Montserrat_337041; font-style: normal; font-weight: 100; font-display: swap; src: url("https://www.element-to-svg.com/_next/static/media/904be59b21bd51cb-s.p.woff2") format("woff2"); unicode-range: U+0-FF, U+131, U+152-153, U+2BB-2BC, U+2C6, U+2DA, U+2DC, U+304, U+308, U+329, U+2000-206F, U+20AC, U+2122, U+2191, U+2193, U+2212, U+2215, U+FEFF, U+FFFD; }
@font-face { font-family: __Montserrat_337041; font-style: normal; font-weight: 200; font-display: swap; src: url("https://www.element-to-svg.com/_next/static/media/b1f344208eb4edfe-s.woff2") format("woff2"); unicode-range: U+460-52F, U+1C80-1C8A, U+20B4, U+2DE0-2DFF, U+A640-A69F, U+FE2E-FE2F; }
@font-face { font-family: __Montserrat_337041; font-style: normal; font-weight: 200; font-display: swap; src: url("https://www.element-to-svg.com/_next/static/media/48e2044251ef3125-s.woff2") format("woff2"); unicode-range: U+301, U+400-45F, U+490-491, U+4B0-4B1, U+2116; }
@font-face { font-family: __Montserrat_337041; font-style: normal; font-weight: 200; font-display: swap; src: url("https://www.element-to-svg.com/_next/static/media/bf24a9759715e608-s.woff2") format("woff2"); unicode-range: U+102-103, U+110-111, U+128-129, U+168-169, U+1A0-1A1, U+1AF-1B0, U+300-301, U+303-304, U+308-309, U+323, U+329, U+1EA0-1EF9, U+20AB; }
@font-face { font-family: __Montserrat_337041; font-style: normal; font-weight: 200; font-display: swap; src: url("https://www.element-to-svg.com/_next/static/media/1f173e5e25f3efee-s.woff2") format("woff2"); unicode-range: U+100-2BA, U+2BD-2C5, U+2C7-2CC, U+2CE-2D7, U+2DD-2FF, U+304, U+308, U+329, U+1D00-1DBF, U+1E00-1E9F, U+1EF2-1EFF, U+2020, U+20A0-20AB, U+20AD-20C0, U+2113, U+2C60-2C7F, U+A720-A7FF; }
@font-face { font-family: __Montserrat_337041; font-style: normal; font-weight: 200; font-display: swap; src: url("https://www.element-to-svg.com/_next/static/media/904be59b21bd51cb-s.p.woff2") format("woff2"); unicode-range: U+0-FF, U+131, U+152-153, U+2BB-2BC, U+2C6, U+2DA, U+2DC, U+304, U+308, U+329, U+2000-206F, U+20AC, U+2122, U+2191, U+2193, U+2212, U+2215, U+FEFF, U+FFFD; }
@font-face { font-family: __Montserrat_337041; font-style: normal; font-weight: 300; font-display: swap; src: url("https://www.element-to-svg.com/_next/static/media/b1f344208eb4edfe-s.woff2") format("woff2"); unicode-range: U+460-52F, U+1C80-1C8A, U+20B4, U+2DE0-2DFF, U+A640-A69F, U+FE2E-FE2F; }
@font-face { font-family: __Montserrat_337041; font-style: normal; font-weight: 300; font-display: swap; src: url("https://www.element-to-svg.com/_next/static/media/48e2044251ef3125-s.woff2") format("woff2"); unicode-range: U+301, U+400-45F, U+490-491, U+4B0-4B1, U+2116; }
@font-face { font-family: __Montserrat_337041; font-style: normal; font-weight: 300; font-display: swap; src: url("https://www.element-to-svg.com/_next/static/media/bf24a9759715e608-s.woff2") format("woff2"); unicode-range: U+102-103, U+110-111, U+128-129, U+168-169, U+1A0-1A1, U+1AF-1B0, U+300-301, U+303-304, U+308-309, U+323, U+329, U+1EA0-1EF9, U+20AB; }
@font-face { font-family: __Montserrat_337041; font-style: normal; font-weight: 300; font-display: swap; src: url("https://www.element-to-svg.com/_next/static/media/1f173e5e25f3efee-s.woff2") format("woff2"); unicode-range: U+100-2BA, U+2BD-2C5, U+2C7-2CC, U+2CE-2D7, U+2DD-2FF, U+304, U+308, U+329, U+1D00-1DBF, U+1E00-1E9F, U+1EF2-1EFF, U+2020, U+20A0-20AB, U+20AD-20C0, U+2113, U+2C60-2C7F, U+A720-A7FF; }
@font-face { font-family: __Montserrat_337041; font-style: normal; font-weight: 300; font-display: swap; src: url("https://www.element-to-svg.com/_next/static/media/904be59b21bd51cb-s.p.woff2") format("woff2"); unicode-range: U+0-FF, U+131, U+152-153, U+2BB-2BC, U+2C6, U+2DA, U+2DC, U+304, U+308, U+329, U+2000-206F, U+20AC, U+2122, U+2191, U+2193, U+2212, U+2215, U+FEFF, U+FFFD; }
@font-face { font-family: __Montserrat_337041; font-style: normal; font-weight: 400; font-display: swap; src: url("https://www.element-to-svg.com/_next/static/media/b1f344208eb4edfe-s.woff2") format("woff2"); unicode-range: U+460-52F, U+1C80-1C8A, U+20B4, U+2DE0-2DFF, U+A640-A69F, U+FE2E-FE2F; }
@font-face { font-family: __Montserrat_337041; font-style: normal; font-weight: 400; font-display: swap; src: url("https://www.element-to-svg.com/_next/static/media/48e2044251ef3125-s.woff2") format("woff2"); unicode-range: U+301, U+400-45F, U+490-491, U+4B0-4B1, U+2116; }
@font-face { font-family: __Montserrat_337041; font-style: normal; font-weight: 400; font-display: swap; src: url("https://www.element-to-svg.com/_next/static/media/bf24a9759715e608-s.woff2") format("woff2"); unicode-range: U+102-103, U+110-111, U+128-129, U+168-169, U+1A0-1A1, U+1AF-1B0, U+300-301, U+303-304, U+308-309, U+323, U+329, U+1EA0-1EF9, U+20AB; }
@font-face { font-family: __Montserrat_337041; font-style: normal; font-weight: 400; font-display: swap; src: url("https://www.element-to-svg.com/_next/static/media/1f173e5e25f3efee-s.woff2") format("woff2"); unicode-range: U+100-2BA, U+2BD-2C5, U+2C7-2CC, U+2CE-2D7, U+2DD-2FF, U+304, U+308, U+329, U+1D00-1DBF, U+1E00-1E9F, U+1EF2-1EFF, U+2020, U+20A0-20AB, U+20AD-20C0, U+2113, U+2C60-2C7F, U+A720-A7FF; }
@font-face { font-family: __Montserrat_337041; font-style: normal; font-weight: 400; font-display: swap; src: url("https://www.element-to-svg.com/_next/static/media/904be59b21bd51cb-s.p.woff2") format("woff2"); unicode-range: U+0-FF, U+131, U+152-153, U+2BB-2BC, U+2C6, U+2DA, U+2DC, U+304, U+308, U+329, U+2000-206F, U+20AC, U+2122, U+2191, U+2193, U+2212, U+2215, U+FEFF, U+FFFD; }
@font-face { font-family: __Montserrat_337041; font-style: normal; font-weight: 500; font-display: swap; src: url("https://www.element-to-svg.com/_next/static/media/b1f344208eb4edfe-s.woff2") format("woff2"); unicode-range: U+460-52F, U+1C80-1C8A, U+20B4, U+2DE0-2DFF, U+A640-A69F, U+FE2E-FE2F; }
@font-face { font-family: __Montserrat_337041; font-style: normal; font-weight: 500; font-display: swap; src: url("https://www.element-to-svg.com/_next/static/media/48e2044251ef3125-s.woff2") format("woff2"); unicode-range: U+301, U+400-45F, U+490-491, U+4B0-4B1, U+2116; }
@font-face { font-family: __Montserrat_337041; font-style: normal; font-weight: 500; font-display: swap; src: url("https://www.element-to-svg.com/_next/static/media/bf24a9759715e608-s.woff2") format("woff2"); unicode-range: U+102-103, U+110-111, U+128-129, U+168-169, U+1A0-1A1, U+1AF-1B0, U+300-301, U+303-304, U+308-309, U+323, U+329, U+1EA0-1EF9, U+20AB; }
@font-face { font-family: __Montserrat_337041; font-style: normal; font-weight: 500; font-display: swap; src: url("https://www.element-to-svg.com/_next/static/media/1f173e5e25f3efee-s.woff2") format("woff2"); unicode-range: U+100-2BA, U+2BD-2C5, U+2C7-2CC, U+2CE-2D7, U+2DD-2FF, U+304, U+308, U+329, U+1D00-1DBF, U+1E00-1E9F, U+1EF2-1EFF, U+2020, U+20A0-20AB, U+20AD-20C0, U+2113, U+2C60-2C7F, U+A720-A7FF; }
@font-face { font-family: __Montserrat_337041; font-style: normal; font-weight: 500; font-display: swap; src: url("https://www.element-to-svg.com/_next/static/media/904be59b21bd51cb-s.p.woff2") format("woff2"); unicode-range: U+0-FF, U+131, U+152-153, U+2BB-2BC, U+2C6, U+2DA, U+2DC, U+304, U+308, U+329, U+2000-206F, U+20AC, U+2122, U+2191, U+2193, U+2212, U+2215, U+FEFF, U+FFFD; }
@font-face { font-family: __Montserrat_337041; font-style: normal; font-weight: 600; font-display: swap; src: url("https://www.element-to-svg.com/_next/static/media/b1f344208eb4edfe-s.woff2") format("woff2"); unicode-range: U+460-52F, U+1C80-1C8A, U+20B4, U+2DE0-2DFF, U+A640-A69F, U+FE2E-FE2F; }
@font-face { font-family: __Montserrat_337041; font-style: normal; font-weight: 600; font-display: swap; src: url("https://www.element-to-svg.com/_next/static/media/48e2044251ef3125-s.woff2") format("woff2"); unicode-range: U+301, U+400-45F, U+490-491, U+4B0-4B1, U+2116; }
@font-face { font-family: __Montserrat_337041; font-style: normal; font-weight: 600; font-display: swap; src: url("https://www.element-to-svg.com/_next/static/media/bf24a9759715e608-s.woff2") format("woff2"); unicode-range: U+102-103, U+110-111, U+128-129, U+168-169, U+1A0-1A1, U+1AF-1B0, U+300-301, U+303-304, U+308-309, U+323, U+329, U+1EA0-1EF9, U+20AB; }
@font-face { font-family: __Montserrat_337041; font-style: normal; font-weight: 600; font-display: swap; src: url("https://www.element-to-svg.com/_next/static/media/1f173e5e25f3efee-s.woff2") format("woff2"); unicode-range: U+100-2BA, U+2BD-2C5, U+2C7-2CC, U+2CE-2D7, U+2DD-2FF, U+304, U+308, U+329, U+1D00-1DBF, U+1E00-1E9F, U+1EF2-1EFF, U+2020, U+20A0-20AB, U+20AD-20C0, U+2113, U+2C60-2C7F, U+A720-A7FF; }
@font-face { font-family: __Montserrat_337041; font-style: normal; font-weight: 600; font-display: swap; src: url("https://www.element-to-svg.com/_next/static/media/904be59b21bd51cb-s.p.woff2") format("woff2"); unicode-range: U+0-FF, U+131, U+152-153, U+2BB-2BC, U+2C6, U+2DA, U+2DC, U+304, U+308, U+329, U+2000-206F, U+20AC, U+2122, U+2191, U+2193, U+2212, U+2215, U+FEFF, U+FFFD; }
@font-face { font-family: __Montserrat_337041; font-style: normal; font-weight: 700; font-display: swap; src: url("https://www.element-to-svg.com/_next/static/media/b1f344208eb4edfe-s.woff2") format("woff2"); unicode-range: U+460-52F, U+1C80-1C8A, U+20B4, U+2DE0-2DFF, U+A640-A69F, U+FE2E-FE2F; }
@font-face { font-family: __Montserrat_337041; font-style: normal; font-weight: 700; font-display: swap; src: url("https://www.element-to-svg.com/_next/static/media/48e2044251ef3125-s.woff2") format("woff2"); unicode-range: U+301, U+400-45F, U+490-491, U+4B0-4B1, U+2116; }
@font-face { font-family: __Montserrat_337041; font-style: normal; font-weight: 700; font-display: swap; src: url("https://www.element-to-svg.com/_next/static/media/bf24a9759715e608-s.woff2") format("woff2"); unicode-range: U+102-103, U+110-111, U+128-129, U+168-169, U+1A0-1A1, U+1AF-1B0, U+300-301, U+303-304, U+308-309, U+323, U+329, U+1EA0-1EF9, U+20AB; }
@font-face { font-family: __Montserrat_337041; font-style: normal; font-weight: 700; font-display: swap; src: url("https://www.element-to-svg.com/_next/static/media/1f173e5e25f3efee-s.woff2") format("woff2"); unicode-range: U+100-2BA, U+2BD-2C5, U+2C7-2CC, U+2CE-2D7, U+2DD-2FF, U+304, U+308, U+329, U+1D00-1DBF, U+1E00-1E9F, U+1EF2-1EFF, U+2020, U+20A0-20AB, U+20AD-20C0, U+2113, U+2C60-2C7F, U+A720-A7FF; }
@font-face { font-family: __Montserrat_337041; font-style: normal; font-weight: 700; font-display: swap; src: url("https://www.element-to-svg.com/_next/static/media/904be59b21bd51cb-s.p.woff2") format("woff2"); unicode-range: U+0-FF, U+131, U+152-153, U+2BB-2BC, U+2C6, U+2DA, U+2DC, U+304, U+308, U+329, U+2000-206F, U+20AC, U+2122, U+2191, U+2193, U+2212, U+2215, U+FEFF, U+FFFD; }
@font-face { font-family: __Montserrat_337041; font-style: normal; font-weight: 800; font-display: swap; src: url("https://www.element-to-svg.com/_next/static/media/b1f344208eb4edfe-s.woff2") format("woff2"); unicode-range: U+460-52F, U+1C80-1C8A, U+20B4, U+2DE0-2DFF, U+A640-A69F, U+FE2E-FE2F; }
@font-face { font-family: __Montserrat_337041; font-style: normal; font-weight: 800; font-display: swap; src: url("https://www.element-to-svg.com/_next/static/media/48e2044251ef3125-s.woff2") format("woff2"); unicode-range: U+301, U+400-45F, U+490-491, U+4B0-4B1, U+2116; }
@font-face { font-family: __Montserrat_337041; font-style: normal; font-weight: 800; font-display: swap; src: url("https://www.element-to-svg.com/_next/static/media/bf24a9759715e608-s.woff2") format("woff2"); unicode-range: U+102-103, U+110-111, U+128-129, U+168-169, U+1A0-1A1, U+1AF-1B0, U+300-301, U+303-304, U+308-309, U+323, U+329, U+1EA0-1EF9, U+20AB; }
@font-face { font-family: __Montserrat_337041; font-style: normal; font-weight: 800; font-display: swap; src: url("https://www.element-to-svg.com/_next/static/media/1f173e5e25f3efee-s.woff2") format("woff2"); unicode-range: U+100-2BA, U+2BD-2C5, U+2C7-2CC, U+2CE-2D7, U+2DD-2FF, U+304, U+308, U+329, U+1D00-1DBF, U+1E00-1E9F, U+1EF2-1EFF, U+2020, U+20A0-20AB, U+20AD-20C0, U+2113, U+2C60-2C7F, U+A720-A7FF; }
@font-face { font-family: __Montserrat_337041; font-style: normal; font-weight: 800; font-display: swap; src: url("https://www.element-to-svg.com/_next/static/media/904be59b21bd51cb-s.p.woff2") format("woff2"); unicode-range: U+0-FF, U+131, U+152-153, U+2BB-2BC, U+2C6, U+2DA, U+2DC, U+304, U+308, U+329, U+2000-206F, U+20AC, U+2122, U+2191, U+2193, U+2212, U+2215, U+FEFF, U+FFFD; }
@font-face { font-family: __Montserrat_337041; font-style: normal; font-weight: 900; font-display: swap; src: url("https://www.element-to-svg.com/_next/static/media/b1f344208eb4edfe-s.woff2") format("woff2"); unicode-range: U+460-52F, U+1C80-1C8A, U+20B4, U+2DE0-2DFF, U+A640-A69F, U+FE2E-FE2F; }
@font-face { font-family: __Montserrat_337041; font-style: normal; font-weight: 900; font-display: swap; src: url("https://www.element-to-svg.com/_next/static/media/48e2044251ef3125-s.woff2") format("woff2"); unicode-range: U+301, U+400-45F, U+490-491, U+4B0-4B1, U+2116; }
@font-face { font-family: __Montserrat_337041; font-style: normal; font-weight: 900; font-display: swap; src: url("https://www.element-to-svg.com/_next/static/media/bf24a9759715e608-s.woff2") format("woff2"); unicode-range: U+102-103, U+110-111, U+128-129, U+168-169, U+1A0-1A1, U+1AF-1B0, U+300-301, U+303-304, U+308-309, U+323, U+329, U+1EA0-1EF9, U+20AB; }
@font-face { font-family: __Montserrat_337041; font-style: normal; font-weight: 900; font-display: swap; src: url("https://www.element-to-svg.com/_next/static/media/1f173e5e25f3efee-s.woff2") format("woff2"); unicode-range: U+100-2BA, U+2BD-2C5, U+2C7-2CC, U+2CE-2D7, U+2DD-2FF, U+304, U+308, U+329, U+1D00-1DBF, U+1E00-1E9F, U+1EF2-1EFF, U+2020, U+20A0-20AB, U+20AD-20C0, U+2113, U+2C60-2C7F, U+A720-A7FF; }
@font-face { font-family: __Montserrat_337041; font-style: normal; font-weight: 900; font-display: swap; src: url("https://www.element-to-svg.com/_next/static/media/904be59b21bd51cb-s.p.woff2") format("woff2"); unicode-range: U+0-FF, U+131, U+152-153, U+2BB-2BC, U+2C6, U+2DA, U+2DC, U+304, U+308, U+329, U+2000-206F, U+20AC, U+2122, U+2191, U+2193, U+2212, U+2215, U+FEFF, U+FFFD; }
@font-face { font-family: __Montserrat_Fallback_337041; src: local("Arial"); ascent-override: 85.79%; descent-override: 22.25%; line-gap-override: 0%; size-adjust: 112.83%; }
@font-face { font-family: __Sora_1822b0; font-style: normal; font-weight: 100; font-display: swap; src: url("https://www.element-to-svg.com/_next/static/media/1d4eaed977255102-s.woff2") format("woff2"); unicode-range: U+100-2BA, U+2BD-2C5, U+2C7-2CC, U+2CE-2D7, U+2DD-2FF, U+304, U+308, U+329, U+1D00-1DBF, U+1E00-1E9F, U+1EF2-1EFF, U+2020, U+20A0-20AB, U+20AD-20C0, U+2113, U+2C60-2C7F, U+A720-A7FF; }
@font-face { font-family: __Sora_1822b0; font-style: normal; font-weight: 100; font-display: swap; src: url("https://www.element-to-svg.com/_next/static/media/f3f7e95f2dbc4fe4-s.p.woff2") format("woff2"); unicode-range: U+0-FF, U+131, U+152-153, U+2BB-2BC, U+2C6, U+2DA, U+2DC, U+304, U+308, U+329, U+2000-206F, U+20AC, U+2122, U+2191, U+2193, U+2212, U+2215, U+FEFF, U+FFFD; }
@font-face { font-family: __Sora_1822b0; font-style: normal; font-weight: 200; font-display: swap; src: url("https://www.element-to-svg.com/_next/static/media/1d4eaed977255102-s.woff2") format("woff2"); unicode-range: U+100-2BA, U+2BD-2C5, U+2C7-2CC, U+2CE-2D7, U+2DD-2FF, U+304, U+308, U+329, U+1D00-1DBF, U+1E00-1E9F, U+1EF2-1EFF, U+2020, U+20A0-20AB, U+20AD-20C0, U+2113, U+2C60-2C7F, U+A720-A7FF; }
@font-face { font-family: __Sora_1822b0; font-style: normal; font-weight: 200; font-display: swap; src: url("https://www.element-to-svg.com/_next/static/media/f3f7e95f2dbc4fe4-s.p.woff2") format("woff2"); unicode-range: U+0-FF, U+131, U+152-153, U+2BB-2BC, U+2C6, U+2DA, U+2DC, U+304, U+308, U+329, U+2000-206F, U+20AC, U+2122, U+2191, U+2193, U+2212, U+2215, U+FEFF, U+FFFD; }
@font-face { font-family: __Sora_1822b0; font-style: normal; font-weight: 300; font-display: swap; src: url("https://www.element-to-svg.com/_next/static/media/1d4eaed977255102-s.woff2") format("woff2"); unicode-range: U+100-2BA, U+2BD-2C5, U+2C7-2CC, U+2CE-2D7, U+2DD-2FF, U+304, U+308, U+329, U+1D00-1DBF, U+1E00-1E9F, U+1EF2-1EFF, U+2020, U+20A0-20AB, U+20AD-20C0, U+2113, U+2C60-2C7F, U+A720-A7FF; }
@font-face { font-family: __Sora_1822b0; font-style: normal; font-weight: 300; font-display: swap; src: url("https://www.element-to-svg.com/_next/static/media/f3f7e95f2dbc4fe4-s.p.woff2") format("woff2"); unicode-range: U+0-FF, U+131, U+152-153, U+2BB-2BC, U+2C6, U+2DA, U+2DC, U+304, U+308, U+329, U+2000-206F, U+20AC, U+2122, U+2191, U+2193, U+2212, U+2215, U+FEFF, U+FFFD; }
@font-face { font-family: __Sora_1822b0; font-style: normal; font-weight: 400; font-display: swap; src: url("https://www.element-to-svg.com/_next/static/media/1d4eaed977255102-s.woff2") format("woff2"); unicode-range: U+100-2BA, U+2BD-2C5, U+2C7-2CC, U+2CE-2D7, U+2DD-2FF, U+304, U+308, U+329, U+1D00-1DBF, U+1E00-1E9F, U+1EF2-1EFF, U+2020, U+20A0-20AB, U+20AD-20C0, U+2113, U+2C60-2C7F, U+A720-A7FF; }
@font-face { font-family: __Sora_1822b0; font-style: normal; font-weight: 400; font-display: swap; src: url("https://www.element-to-svg.com/_next/static/media/f3f7e95f2dbc4fe4-s.p.woff2") format("woff2"); unicode-range: U+0-FF, U+131, U+152-153, U+2BB-2BC, U+2C6, U+2DA, U+2DC, U+304, U+308, U+329, U+2000-206F, U+20AC, U+2122, U+2191, U+2193, U+2212, U+2215, U+FEFF, U+FFFD; }
@font-face { font-family: __Sora_1822b0; font-style: normal; font-weight: 500; font-display: swap; src: url("https://www.element-to-svg.com/_next/static/media/1d4eaed977255102-s.woff2") format("woff2"); unicode-range: U+100-2BA, U+2BD-2C5, U+2C7-2CC, U+2CE-2D7, U+2DD-2FF, U+304, U+308, U+329, U+1D00-1DBF, U+1E00-1E9F, U+1EF2-1EFF, U+2020, U+20A0-20AB, U+20AD-20C0, U+2113, U+2C60-2C7F, U+A720-A7FF; }
@font-face { font-family: __Sora_1822b0; font-style: normal; font-weight: 500; font-display: swap; src: url("https://www.element-to-svg.com/_next/static/media/f3f7e95f2dbc4fe4-s.p.woff2") format("woff2"); unicode-range: U+0-FF, U+131, U+152-153, U+2BB-2BC, U+2C6, U+2DA, U+2DC, U+304, U+308, U+329, U+2000-206F, U+20AC, U+2122, U+2191, U+2193, U+2212, U+2215, U+FEFF, U+FFFD; }
@font-face { font-family: __Sora_1822b0; font-style: normal; font-weight: 600; font-display: swap; src: url("https://www.element-to-svg.com/_next/static/media/1d4eaed977255102-s.woff2") format("woff2"); unicode-range: U+100-2BA, U+2BD-2C5, U+2C7-2CC, U+2CE-2D7, U+2DD-2FF, U+304, U+308, U+329, U+1D00-1DBF, U+1E00-1E9F, U+1EF2-1EFF, U+2020, U+20A0-20AB, U+20AD-20C0, U+2113, U+2C60-2C7F, U+A720-A7FF; }
@font-face { font-family: __Sora_1822b0; font-style: normal; font-weight: 600; font-display: swap; src: url("https://www.element-to-svg.com/_next/static/media/f3f7e95f2dbc4fe4-s.p.woff2") format("woff2"); unicode-range: U+0-FF, U+131, U+152-153, U+2BB-2BC, U+2C6, U+2DA, U+2DC, U+304, U+308, U+329, U+2000-206F, U+20AC, U+2122, U+2191, U+2193, U+2212, U+2215, U+FEFF, U+FFFD; }
@font-face { font-family: __Sora_1822b0; font-style: normal; font-weight: 700; font-display: swap; src: url("https://www.element-to-svg.com/_next/static/media/1d4eaed977255102-s.woff2") format("woff2"); unicode-range: U+100-2BA, U+2BD-2C5, U+2C7-2CC, U+2CE-2D7, U+2DD-2FF, U+304, U+308, U+329, U+1D00-1DBF, U+1E00-1E9F, U+1EF2-1EFF, U+2020, U+20A0-20AB, U+20AD-20C0, U+2113, U+2C60-2C7F, U+A720-A7FF; }
@font-face { font-family: __Sora_1822b0; font-style: normal; font-weight: 700; font-display: swap; src: url("https://www.element-to-svg.com/_next/static/media/f3f7e95f2dbc4fe4-s.p.woff2") format("woff2"); unicode-range: U+0-FF, U+131, U+152-153, U+2BB-2BC, U+2C6, U+2DA, U+2DC, U+304, U+308, U+329, U+2000-206F, U+20AC, U+2122, U+2191, U+2193, U+2212, U+2215, U+FEFF, U+FFFD; }
@font-face { font-family: __Sora_1822b0; font-style: normal; font-weight: 800; font-display: swap; src: url("https://www.element-to-svg.com/_next/static/media/1d4eaed977255102-s.woff2") format("woff2"); unicode-range: U+100-2BA, U+2BD-2C5, U+2C7-2CC, U+2CE-2D7, U+2DD-2FF, U+304, U+308, U+329, U+1D00-1DBF, U+1E00-1E9F, U+1EF2-1EFF, U+2020, U+20A0-20AB, U+20AD-20C0, U+2113, U+2C60-2C7F, U+A720-A7FF; }
@font-face { font-family: __Sora_1822b0; font-style: normal; font-weight: 800; font-display: swap; src: url("https://www.element-to-svg.com/_next/static/media/f3f7e95f2dbc4fe4-s.p.woff2") format("woff2"); unicode-range: U+0-FF, U+131, U+152-153, U+2BB-2BC, U+2C6, U+2DA, U+2DC, U+304, U+308, U+329, U+2000-206F, U+20AC, U+2122, U+2191, U+2193, U+2212, U+2215, U+FEFF, U+FFFD; }
@font-face { font-family: __Sora_Fallback_1822b0; src: local("Arial"); ascent-override: 85.29%; descent-override: 25.5%; line-gap-override: 0%; size-adjust: 113.73%; }
</style>
  <g data-stacking-layer="rootBackgroundAndBorders"/>
  <g data-stacking-layer="childStackingContextsWithNegativeStackLevels"/>
  <g data-stacking-layer="inFlowNonInlineNonPositionedDescendants"/>
  <g data-stacking-layer="nonPositionedFloats"/>
  <g data-stacking-layer="inFlowInlineLevelNonPositionedDescendants"/>
  <g data-stacking-layer="childStackingContextsWithStackLevelZeroAndPositionedDescendantsWithStackLevelZero"/>
  <g data-stacking-layer="childStackingContextsWithPositiveStackLevels"/>
  <g data-tag="div" id="w-full1" class="w-full" data-z-index="auto" data-stacking-context="true" aria-owns="style1 svg1" transform="matrix(1, 0, 0, 1, 0.926313, 14.006178)">
    <g data-tag="style" id="style1" data-z-index="auto" data-stacking-context="true"/>
    <g data-tag="svg" id="svg1" data-z-index="auto" data-stacking-context="true" mask="url(#mask-for-svg11)" style="">
      <g data-stacking-layer="rootBackgroundAndBorders" style="visibility: hidden;"/>
      <g data-stacking-layer="childStackingContextsWithNegativeStackLevels" style="visibility: hidden;"/>
      <g data-stacking-layer="inFlowNonInlineNonPositionedDescendants" style="visibility: hidden;"/>
      <g data-stacking-layer="nonPositionedFloats" style="visibility: hidden;"/>
      <g data-stacking-layer="inFlowInlineLevelNonPositionedDescendants" style="visibility: hidden;"/>
      <g data-stacking-layer="childStackingContextsWithStackLevelZeroAndPositionedDescendantsWithStackLevelZero" style="visibility: hidden;"/>
      <g data-stacking-layer="childStackingContextsWithPositiveStackLevels" style="visibility: hidden;"/>
      <mask id="mask-for-svg11">
        <rect width="541.984375" height="404.03125" x="1009" y="624" fill="#ffffff"/>
      </mask>
      <g class="svg-content" data-view-box="0 30 550 410" data-width="" data-height="" transform="matrix(0.985426 0 0 0.985426 1009 594.44)" style="">
        <g fill="rgb(150, 60, 189)" fill-rule="none" stroke="none" stroke-width="1" stroke-linecap="butt" stroke-linejoin="miter" stroke-miterlimit="10" stroke-dasharray="" stroke-dashoffset="0" font-family="none" font-weight="none" font-size="none" text-anchor="none" style="mix-blend-mode: normal" color="rgb(0, 0, 0)">
          <g data-paper-data="{&quot;isGlobalGroup&quot;:true,&quot;bounds&quot;:{&quot;x&quot;:65,&quot;y&quot;:158.26648726228922,&quot;width&quot;:420,&quot;height&quot;:153.46702547542156}}" color="rgb(0, 0, 0)" fill="rgb(150, 60, 189)" stroke="none" stroke-miterlimit="10">
            <g data-paper-data="{&quot;isPrimaryText&quot;:true}" fill-rule="nonzero" color="rgb(0, 0, 0)" fill="rgb(150, 60, 189)" stroke="none" stroke-miterlimit="10" style="visibility: hidden;">
              <path d="M72.34661,285.17269c2.05956,0 3.91819,0.3328 5.57589,0.99839c1.6577,0.66559 3.05795,1.58235 4.20075,2.75027c1.14281,1.16792 2.02189,2.54306 2.63724,4.1254c0.61536,1.58235 0.92304,3.29028 0.92304,5.12379c0,1.83351 -0.30768,3.54144 -0.92304,5.12379c-0.61536,1.58235 -1.50072,2.96376 -2.65608,4.14424c-1.15536,1.18048 -2.55562,2.1098 -4.20075,2.78794c-1.64514,0.67815 -3.49749,1.01722 -5.55705,1.01722h-7.34661v-26.07104zM70.16146,306.15762h2.22282c1.23071,0 2.3484,-0.20093 3.35307,-0.6028c1.00466,-0.40187 1.85863,-0.95443 2.56189,-1.6577c0.70327,-0.70327 1.24327,-1.53839 1.62002,-2.50538c0.37675,-0.96699 0.56512,-2.02817 0.56512,-3.18353c0,-1.18048 -0.18837,-2.2605 -0.56512,-3.24004c-0.37675,-0.97955 -0.91676,-1.81468 -1.62002,-2.50538c-0.70327,-0.69071 -1.55723,-1.22443 -2.56189,-1.60118c-1.00466,-0.37675 -2.12235,-0.56512 -3.35307,-0.56512h-2.22282z" data-paper-data="{&quot;glyphName&quot;:&quot;D&quot;,&quot;glyphIndex&quot;:0,&quot;firstGlyphOfWord&quot;:true,&quot;word&quot;:1}" color="rgb(0, 0, 0)" fill="rgb(150, 60, 189)" stroke="none" stroke-miterlimit="10"/>
              <path d="M94.53714,311.24374l-6.85684,-26.07104h5.53821l3.76749,15.86114l4.18192,-15.86114h4.63402l4.18192,15.82347l3.76749,-15.82347h5.46286l-6.85684,26.07104h-4.63402l-4.29494,-15.74812l-4.29494,15.74812z" data-paper-data="{&quot;glyphName&quot;:&quot;W&quot;,&quot;glyphIndex&quot;:1,&quot;lastGlyphOfWord&quot;:true,&quot;word&quot;:1}" color="rgb(0, 0, 0)" fill="rgb(150, 60, 189)" stroke="none" stroke-miterlimit="10"/>
              <path d="M141.59311,285.17269c2.05956,0 3.91819,0.3328 5.57589,0.99839c1.6577,0.66559 3.05795,1.58235 4.20075,2.75027c1.14281,1.16792 2.02189,2.54306 2.63724,4.1254c0.61536,1.58235 0.92304,3.29028 0.92304,5.12379c0,1.83351 -0.30768,3.54144 -0.92304,5.12379c-0.61536,1.58235 -1.50072,2.96376 -2.65608,4.14424c-1.15536,1.18048 -2.55562,2.1098 -4.20075,2.78794c-1.64514,0.67815 -3.49749,1.01722 -5.55705,1.01722h-7.34661v-26.07104zM139.40797,306.15762h2.22282c1.23071,0 2.3484,-0.20093 3.35307,-0.6028c1.00466,-0.40187 1.85863,-0.95443 2.56189,-1.6577c0.70327,-0.70327 1.24327,-1.53839 1.62002,-2.50538c0.37675,-0.96699 0.56512,-2.02817 0.56512,-3.18353c0,-1.18048 -0.18837,-2.2605 -0.56512,-3.24004c-0.37675,-0.97955 -0.91676,-1.81468 -1.62002,-2.50538c-0.70327,-0.69071 -1.55723,-1.22443 -2.56189,-1.60118c-1.00466,-0.37675 -2.12235,-0.56512 -3.35307,-0.56512h-2.22282z" data-paper-data="{&quot;glyphName&quot;:&quot;D&quot;,&quot;glyphIndex&quot;:2,&quot;firstGlyphOfWord&quot;:true,&quot;word&quot;:2}" color="rgb(0, 0, 0)" fill="rgb(150, 60, 189)" stroke="none" stroke-miterlimit="10"/>
              <path d="M158.99892,285.17269h15.10764v5.12379h-9.98385v5.08611h6.17869v5.12379h-6.17869v5.68891h10.24758v5.04844h-15.37137z" data-paper-data="{&quot;glyphName&quot;:&quot;E&quot;,&quot;glyphIndex&quot;:3,&quot;word&quot;:2}" color="rgb(0, 0, 0)" fill="rgb(150, 60, 189)" stroke="none" stroke-miterlimit="10"/>
              <path d="M186.80301,284.90897c1.13025,0 2.16003,0.11302 3.08934,0.33907c0.92931,0.22605 1.77072,0.52117 2.52422,0.88536c0.7535,0.36419 1.42537,0.78489 2.01561,1.26211c0.59024,0.47722 1.09885,0.96699 1.52583,1.46932l-3.72982,3.50377c-0.72838,-0.7535 -1.54467,-1.36258 -2.44887,-1.82723c-0.9042,-0.46466 -1.99677,-0.69699 -3.27772,-0.69699c-1.08001,0 -1.98421,0.21349 -2.71259,0.64047c-0.72838,0.42698 -1.09257,0.92931 -1.09257,1.507c0,0.57768 0.19465,1.02978 0.58396,1.3563c0.38931,0.32652 0.96071,0.62792 1.71421,0.9042c0.6028,0.22605 1.26839,0.4521 1.99677,0.67815c0.72838,0.22605 1.46304,0.4521 2.20398,0.67815c0.74094,0.22605 1.46304,0.47094 2.16631,0.73466c0.70327,0.26372 1.3563,0.54629 1.9591,0.84769c1.30606,0.65303 2.22282,1.4756 2.75027,2.46771c0.52745,0.99211 0.79117,2.25422 0.79117,3.78633c0,1.53211 -0.3014,2.81306 -0.9042,3.84284c-0.6028,1.02978 -1.38769,1.85863 -2.35468,2.48654c-0.96699,0.62792 -2.04072,1.08001 -3.22121,1.3563c-1.18048,0.27628 -2.33584,0.41442 -3.46609,0.41442c-2.81306,0 -5.08611,-0.38303 -6.81916,-1.14909c-1.73305,-0.76606 -3.07679,-1.82723 -4.03122,-3.18353c0.65303,-0.57768 1.28723,-1.13653 1.90258,-1.67653c0.61536,-0.54001 1.23699,-1.09885 1.86491,-1.67653c0.77861,0.80373 1.73305,1.48188 2.86329,2.03445c1.13025,0.55257 2.52422,0.82885 4.18192,0.82885c1.507,0 2.71887,-0.25745 3.63563,-0.77234c0.91676,-0.51489 1.37513,-1.22443 1.37513,-2.12863c0,-0.62792 -0.1821,-1.16164 -0.54629,-1.60118c-0.36419,-0.43954 -0.83513,-0.81001 -1.41281,-1.11141c-0.57768,-0.3014 -1.23699,-0.56512 -1.97793,-0.79117c-0.74094,-0.22605 -1.49444,-0.43954 -2.2605,-0.64047c-0.76606,-0.20093 -1.507,-0.40814 -2.22282,-0.62164c-0.71582,-0.21349 -1.35002,-0.48349 -1.90258,-0.81001c-1.30606,-0.7535 -2.2605,-1.60746 -2.86329,-2.56189c-0.6028,-0.95443 -0.9042,-2.21026 -0.9042,-3.76749c0,-0.97955 0.20093,-1.89003 0.6028,-2.73143c0.40187,-0.84141 0.98583,-1.58235 1.75188,-2.22282c0.76606,-0.64047 1.70793,-1.14281 2.82562,-1.507c1.11769,-0.36419 2.39236,-0.54629 3.824,-0.54629z" data-paper-data="{&quot;glyphName&quot;:&quot;S&quot;,&quot;glyphIndex&quot;:4,&quot;word&quot;:2}" color="rgb(0, 0, 0)" fill="rgb(150, 60, 189)" stroke="none" stroke-miterlimit="10"/>
              <path d="M200.62971,285.17269h15.10764v5.12379h-9.98385v5.08611h6.17869v5.12379h-6.17869v5.68891h10.24758v5.04844h-15.37137z" data-paper-data="{&quot;glyphName&quot;:&quot;E&quot;,&quot;glyphIndex&quot;:5,&quot;word&quot;:2}" color="rgb(0, 0, 0)" fill="rgb(150, 60, 189)" stroke="none" stroke-miterlimit="10"/>
              <path d="M234.38644,301.14686v-15.97417h5.12379v26.07104h-4.97309l-9.53175,-15.93649v15.93649h-5.12379v-26.07104h4.97309z" data-paper-data="{&quot;glyphName&quot;:&quot;N&quot;,&quot;glyphIndex&quot;:6,&quot;word&quot;:2}" color="rgb(0, 0, 0)" fill="rgb(150, 60, 189)" stroke="none" stroke-miterlimit="10"/>
              <path d="M251.82992,311.24374l-9.30571,-26.07104h5.68891l5.76426,17.51884l5.80194,-17.51884h5.57589l-9.34338,26.07104z" data-paper-data="{&quot;glyphName&quot;:&quot;V&quot;,&quot;glyphIndex&quot;:7,&quot;word&quot;:2}" color="rgb(0, 0, 0)" fill="rgb(150, 60, 189)" stroke="none" stroke-miterlimit="10"/>
              <path d="M277.1098,284.68292c1.63258,0 3.1333,0.28884 4.50215,0.86652c1.36886,0.57768 2.54306,1.43793 3.5226,2.58073c0.97955,1.14281 1.7456,2.56189 2.29817,4.25727c0.55257,1.69537 0.82885,3.64819 0.82885,5.85845c0,2.21026 -0.27628,4.1568 -0.82885,5.83961c-0.55257,1.68281 -1.31862,3.08934 -2.29817,4.21959c-0.97955,1.13025 -2.15375,1.98421 -3.5226,2.56189c-1.36886,0.57768 -2.86957,0.86652 -4.50215,0.86652c-1.63258,0 -3.12702,-0.28884 -4.48332,-0.86652c-1.3563,-0.57768 -2.52422,-1.43165 -3.50377,-2.56189c-0.97955,-1.13025 -1.7456,-2.53678 -2.29817,-4.21959c-0.55257,-1.68281 -0.82885,-3.62935 -0.82885,-5.83961c0,-2.21026 0.27628,-4.16308 0.82885,-5.85845c0.55257,-1.69537 1.31862,-3.11446 2.29817,-4.25727c0.97955,-1.14281 2.14747,-2.00305 3.50377,-2.58073c1.3563,-0.57768 2.85074,-0.86652 4.48332,-0.86652zM277.1098,289.80671c-1.88375,0 -3.35307,0.70327 -4.40797,2.1098c-1.0549,1.40653 -1.58235,3.51633 -1.58235,6.32939c0,2.81306 0.52745,4.91658 1.58235,6.31055c1.0549,1.39397 2.52422,2.09096 4.40797,2.09096c1.88375,0 3.36563,-0.69699 4.44564,-2.09096c1.08001,-1.39397 1.62002,-3.49749 1.62002,-6.31055c0,-2.81306 -0.54001,-4.92286 -1.62002,-6.32939c-1.08001,-1.40653 -2.56189,-2.1098 -4.44564,-2.1098z" data-paper-data="{&quot;glyphName&quot;:&quot;O&quot;,&quot;glyphIndex&quot;:8,&quot;word&quot;:2}" color="rgb(0, 0, 0)" fill="rgb(150, 60, 189)" stroke="none" stroke-miterlimit="10"/>
              <path d="M292.59419,285.17269h5.12379v21.0226h11.49085v5.04844h-16.61464z" data-paper-data="{&quot;glyphName&quot;:&quot;L&quot;,&quot;glyphIndex&quot;:9,&quot;word&quot;:2}" color="rgb(0, 0, 0)" fill="rgb(150, 60, 189)" stroke="none" stroke-miterlimit="10"/>
              <path d="M319.53175,311.24374l-9.30571,-26.07104h5.68891l5.76426,17.51884l5.80194,-17.51884h5.57589l-9.34338,26.07104z" data-paper-data="{&quot;glyphName&quot;:&quot;V&quot;,&quot;glyphIndex&quot;:10,&quot;word&quot;:2}" color="rgb(0, 0, 0)" fill="rgb(150, 60, 189)" stroke="none" stroke-miterlimit="10"/>
              <path d="M336.22174,285.17269h5.12379v26.07104h-5.12379z" data-paper-data="{&quot;glyphName&quot;:&quot;I&quot;,&quot;glyphIndex&quot;:11,&quot;word&quot;:2}" color="rgb(0, 0, 0)" fill="rgb(150, 60, 189)" stroke="none" stroke-miterlimit="10"/>
              <path d="M371.14639,285.17269v26.07104h-5.12379v-13.56297l-5.76426,13.56297h-2.78794l-5.76426,-13.56297v13.56297h-5.12379v-26.07104h5.27449l7.00753,16.42626l7.00753,-16.42626z" data-paper-data="{&quot;glyphName&quot;:&quot;M&quot;,&quot;glyphIndex&quot;:12,&quot;word&quot;:2}" color="rgb(0, 0, 0)" fill="rgb(150, 60, 189)" stroke="none" stroke-miterlimit="10"/>
              <path d="M376.27018,285.17269h15.10764v5.12379h-9.98385v5.08611h6.17869v5.12379h-6.17869v5.68891h10.24758v5.04844h-15.37137z" data-paper-data="{&quot;glyphName&quot;:&quot;E&quot;,&quot;glyphIndex&quot;:13,&quot;word&quot;:2}" color="rgb(0, 0, 0)" fill="rgb(150, 60, 189)" stroke="none" stroke-miterlimit="10"/>
              <path d="M410.02691,301.14686v-15.97417h5.12379v26.07104h-4.97309l-9.53175,-15.93649v15.93649h-5.12379v-26.07104h4.97309z" data-paper-data="{&quot;glyphName&quot;:&quot;N&quot;,&quot;glyphIndex&quot;:14,&quot;word&quot;:2}" color="rgb(0, 0, 0)" fill="rgb(150, 60, 189)" stroke="none" stroke-miterlimit="10"/>
              <path d="M430.44672,311.24374h-5.08611v-20.94726h-7.04521v-5.12379h19.10118v5.12379h-6.96986z" data-paper-data="{&quot;glyphName&quot;:&quot;T&quot;,&quot;glyphIndex&quot;:15,&quot;word&quot;:2}" color="rgb(0, 0, 0)" fill="rgb(150, 60, 189)" stroke="none" stroke-miterlimit="10"/>
              <path d="M450.9042,284.68292c1.63258,0 3.1333,0.28884 4.50215,0.86652c1.36886,0.57768 2.54306,1.43793 3.5226,2.58073c0.97955,1.14281 1.7456,2.56189 2.29817,4.25727c0.55257,1.69537 0.82885,3.64819 0.82885,5.85845c0,2.21026 -0.27628,4.1568 -0.82885,5.83961c-0.55257,1.68281 -1.31862,3.08934 -2.29817,4.21959c-0.97955,1.13025 -2.15375,1.98421 -3.5226,2.56189c-1.36886,0.57768 -2.86957,0.86652 -4.50215,0.86652c-1.63258,0 -3.12702,-0.28884 -4.48332,-0.86652c-1.3563,-0.57768 -2.52422,-1.43165 -3.50377,-2.56189c-0.97955,-1.13025 -1.7456,-2.53678 -2.29817,-4.21959c-0.55257,-1.68281 -0.82885,-3.62935 -0.82885,-5.83961c0,-2.21026 0.27628,-4.16308 0.82885,-5.85845c0.55257,-1.69537 1.31862,-3.11446 2.29817,-4.25727c0.97955,-1.14281 2.14747,-2.00305 3.50377,-2.58073c1.3563,-0.57768 2.85074,-0.86652 4.48332,-0.86652zM450.9042,289.80671c-1.88375,0 -3.35307,0.70327 -4.40797,2.1098c-1.0549,1.40653 -1.58235,3.51633 -1.58235,6.32939c0,2.81306 0.52745,4.91658 1.58235,6.31055c1.0549,1.39397 2.52422,2.09096 4.40797,2.09096c1.88375,0 3.36563,-0.69699 4.44564,-2.09096c1.08001,-1.39397 1.62002,-3.49749 1.62002,-6.31055c0,-2.81306 -0.54001,-4.92286 -1.62002,-6.32939c-1.08001,-1.40653 -2.56189,-2.1098 -4.44564,-2.1098z" data-paper-data="{&quot;glyphName&quot;:&quot;O&quot;,&quot;glyphIndex&quot;:16,&quot;word&quot;:2}" color="rgb(0, 0, 0)" fill="rgb(150, 60, 189)" stroke="none" stroke-miterlimit="10"/>
              <path d="M474.9408,284.90897c1.13025,0 2.16003,0.11302 3.08934,0.33907c0.92931,0.22605 1.77072,0.52117 2.52422,0.88536c0.7535,0.36419 1.42537,0.78489 2.01561,1.26211c0.59024,0.47722 1.09885,0.96699 1.52583,1.46932l-3.72982,3.50377c-0.72838,-0.7535 -1.54467,-1.36258 -2.44887,-1.82723c-0.9042,-0.46466 -1.99677,-0.69699 -3.27772,-0.69699c-1.08001,0 -1.98421,0.21349 -2.71259,0.64047c-0.72838,0.42698 -1.09257,0.92931 -1.09257,1.507c0,0.57768 0.19465,1.02978 0.58396,1.3563c0.38931,0.32652 0.96071,0.62792 1.71421,0.9042c0.6028,0.22605 1.26839,0.4521 1.99677,0.67815c0.72838,0.22605 1.46304,0.4521 2.20398,0.67815c0.74094,0.22605 1.46304,0.47094 2.16631,0.73466c0.70327,0.26372 1.3563,0.54629 1.9591,0.84769c1.30606,0.65303 2.22282,1.4756 2.75027,2.46771c0.52745,0.99211 0.79117,2.25422 0.79117,3.78633c0,1.53211 -0.3014,2.81306 -0.9042,3.84284c-0.6028,1.02978 -1.38769,1.85863 -2.35468,2.48654c-0.96699,0.62792 -2.04072,1.08001 -3.22121,1.3563c-1.18048,0.27628 -2.33584,0.41442 -3.46609,0.41442c-2.81306,0 -5.08611,-0.38303 -6.81916,-1.14909c-1.73305,-0.76606 -3.07679,-1.82723 -4.03122,-3.18353c0.65303,-0.57768 1.28723,-1.13653 1.90258,-1.67653c0.61536,-0.54001 1.23699,-1.09885 1.86491,-1.67653c0.77861,0.80373 1.73305,1.48188 2.86329,2.03445c1.13025,0.55257 2.52422,0.82885 4.18192,0.82885c1.507,0 2.71887,-0.25745 3.63563,-0.77234c0.91676,-0.51489 1.37513,-1.22443 1.37513,-2.12863c0,-0.62792 -0.1821,-1.16164 -0.54629,-1.60118c-0.36419,-0.43954 -0.83513,-0.81001 -1.41281,-1.11141c-0.57768,-0.3014 -1.23699,-0.56512 -1.97793,-0.79117c-0.74094,-0.22605 -1.49444,-0.43954 -2.2605,-0.64047c-0.76606,-0.20093 -1.507,-0.40814 -2.22282,-0.62164c-0.71582,-0.21349 -1.35002,-0.48349 -1.90258,-0.81001c-1.30606,-0.7535 -2.2605,-1.60746 -2.86329,-2.56189c-0.6028,-0.95443 -0.9042,-2.21026 -0.9042,-3.76749c0,-0.97955 0.20093,-1.89003 0.6028,-2.73143c0.40187,-0.84141 0.98583,-1.58235 1.75188,-2.22282c0.76606,-0.64047 1.70793,-1.14281 2.82562,-1.507c1.11769,-0.36419 2.39236,-0.54629 3.824,-0.54629z" data-paper-data="{&quot;glyphName&quot;:&quot;S&quot;,&quot;glyphIndex&quot;:17,&quot;lastGlyphOfWord&quot;:true,&quot;word&quot;:2}" color="rgb(0, 0, 0)" fill="rgb(150, 60, 189)" stroke="none" stroke-miterlimit="10"/>
            </g>
            <g data-paper-data="{&quot;isIcon&quot;:&quot;true&quot;,&quot;iconType&quot;:&quot;icon&quot;,&quot;rawIconId&quot;:&quot;z_zFcMji_QNcLWdGR97kq8bt0yykX3l2eCXIwP5bJc&quot;,&quot;source&quot;:&quot;ai&quot;,&quot;selectedEffects&quot;:{&quot;container&quot;:&quot;&quot;,&quot;transformation&quot;:&quot;&quot;,&quot;pattern&quot;:&quot;&quot;},&quot;isDetailed&quot;:false,&quot;iconStyle&quot;:&quot;standalone&quot;,&quot;bounds&quot;:{&quot;x&quot;:217.42151897472803,&quot;y&quot;:158.26648726228922,&quot;width&quot;:115.15696205054394,&quot;height&quot;:106.39899533548618},&quot;fillRule&quot;:&quot;evenodd&quot;,&quot;suitableAsStandaloneIcon&quot;:true}" fill-rule="evenodd" color="rgb(0, 0, 0)" fill="rgb(150, 60, 189)" stroke="none" stroke-miterlimit="10" style="" transform="matrix(3.379673, 0, 0, 3.379673, -655.342041, -478.985504)">
              <path d="M218.14526,161.37778c0.72871,-1.28443 2.07072,-2.33123 3.58823,-2.79839c0.80063,-0.24657 3.8897,-0.29938 18.22145,-0.31123c18.28566,-0.01538 20.0445,0.05738 24.40832,1.00979c12.28131,2.6803 22.75114,12.07949 26.74227,24.00698c3.62789,10.84184 1.91921,22.91803 -4.63192,32.73403c-2.11961,3.17581 -6.07475,7.93256 -6.59611,7.93256c-0.44196,0 -6.96969,-8.77419 -6.97059,-9.36932c-0.00022,-0.17926 0.5958,-0.98738 1.32431,-1.79618c2.70011,-2.99813 4.54578,-6.12109 5.72771,-9.69208c1.12773,-3.40657 1.34005,-4.73313 1.33803,-8.35315c-0.0018,-2.89962 -0.0731,-3.61462 -0.55644,-5.57274c-2.1376,-8.65762 -8.24902,-15.31472 -16.53559,-18.01208c-3.40568,-1.10856 -3.47495,-1.11189 -23.73155,-1.13475l-18.81536,-0.021l-1.05823,-0.55844c-1.10979,-0.58546 -2.11418,-1.58568 -2.73041,-2.71876c-0.26716,-0.49148 -0.36633,-1.1495 -0.36758,-2.44018c-0.00166,-1.59547 0.06091,-1.8778 0.64346,-2.90506zM217.61635,183.10297c0.50937,-1.75232 1.83767,-3.1044 3.70528,-3.77177c0.59628,-0.21311 5.19263,-0.26985 22.16629,-0.27338c21.08901,-0.00459 21.42841,0.00187 22.34989,0.41809c1.13852,0.51414 2.37444,1.67164 2.98036,2.7906c0.44646,0.82521 0.45095,0.9469 0.55824,15.80079c0.10639,14.73829 0.11516,14.98997 0.56634,16.32057c0.25191,0.74335 0.80317,1.93293 1.22511,2.64366c0.80745,1.36052 5.85299,8.03467 10.82093,14.31477c1.6221,2.05056 5.25628,6.67528 8.07583,10.27708c5.38516,6.87905 5.83882,7.46653 6.28078,7.45754c0.04723,-0.00067 0.09401,-0.00854 0.14665,-0.01619c0.23076,-0.03351 0.98288,-0.76764 1.6709,-1.63131c3.46258,-4.3456 12.37645,-15.60601 14.30982,-18.07626c1.20825,-1.54382 3.36249,-4.29432 4.78733,-6.11276c2.88905,-3.68682 3.39398,-4.55095 3.6803,-6.29854c0.30656,-1.87108 0.26113,-25.69889 -0.04948,-26.0095c-0.18533,-0.18556 -2.29436,-0.24965 -8.20425,-0.24965c-9.06839,0 -9.38439,-0.04835 -11.04202,-1.68934c-2.44619,-2.42212 -2.52558,-5.84601 -0.18938,-8.1685c0.37493,-0.37289 0.659,-0.66789 0.98693,-0.90117c1.27865,-0.90999 3.22372,-0.88358 13.8285,-0.88358c11.07958,0 11.54943,0.01579 12.64275,0.42496c1.35624,0.50748 2.71676,1.76059 3.27073,3.01293c0.38461,0.8693 0.39968,1.58229 0.39338,18.57041c-0.00405,10.89605 -0.08637,18.09156 -0.2148,18.77553c-0.34952,1.86006 -1.01887,3.61867 -1.89222,4.96974c-1.08454,1.67787 -6.66156,8.832 -16.9256,21.71158c-1.7314,2.17269 -5.18544,6.56979 -7.67525,9.77147c-2.48982,3.20168 -4.8195,6.12941 -5.17666,6.50592c-1.44418,1.52178 -3.98776,2.21385 -5.99333,1.63086c-1.65876,-0.48222 -2.61757,-1.28584 -4.54083,-3.8049c-2.32383,-3.04446 -15.30912,-19.60659 -20.74624,-26.46135c-7.09745,-8.94783 -9.07356,-11.81258 -10.24717,-14.85637c-1.30474,-3.38318 -1.29596,-3.28242 -1.38076,-16.22993c-0.05218,-7.98744 -0.1498,-11.92999 -0.29959,-12.11037c-0.31331,-0.37741 -27.82005,-0.39518 -28.19698,-0.01822c-0.36153,0.36144 -0.36153,36.56232 0,36.92377c0.36778,0.36774 7.43676,0.34795 7.94322,-0.02249c0.3497,-0.25573 0.37361,-1.05756 0.40354,-13.5658l0.0318,-13.29388l0.59274,-1.20712c1.07861,-2.19653 3.21346,-3.4068 5.69046,-3.22574c2.13266,0.15564 3.79186,1.29147 4.89035,3.3472l0.46917,0.87785l0.10391,13.17962c0.09267,11.7532 0.13967,13.20189 0.43499,13.38767c0.40395,0.25506 3.43491,-0.70151 6.52076,-2.05753c1.13852,-0.50044 2.13266,-0.84028 2.2089,-0.75504c0.72266,0.8043 6.63614,8.8203 6.63614,8.99528c0,0.32815 -5.51674,2.93965 -8.10822,3.83841c-2.84294,0.98581 -5.60221,1.6709 -8.34281,2.07102c-1.80585,0.2636 -4.48639,0.32231 -14.65739,0.32073l-12.44768,-0.00225l-1.04098,-0.48447c-1.07363,-0.49999 -2.10692,-1.50896 -2.74934,-2.6846c-0.34533,-0.63179 -0.37153,-2.26603 -0.42974,-26.66108c-0.04574,-19.21097 0.00083,-26.2036 0.17838,-26.81492zM301.33224,199.70266c0.62842,-1.18193 1.62097,-2.125 2.85958,-2.71743c0.88437,-0.42261 1.28247,-0.48694 2.60317,-0.41924c2.30831,0.11831 3.8807,1.11715 4.95108,3.1459l0.55847,1.05823l-0.00135,5.71736c-0.00157,5.34198 -0.03306,5.826 -0.47885,7.37139c-0.74537,2.58226 -1.61062,3.97134 -6.2295,10.00066c-5.13528,6.70339 -12.48643,16.0545 -12.74801,16.21598c-0.34952,0.21637 -0.78338,-0.22087 -2.89759,-2.92211c-4.14453,-5.2943 -4.4043,-5.66766 -4.25991,-6.12266c0.07445,-0.23459 0.9975,-1.52561 2.05168,-2.86925c1.05373,-1.34365 2.9889,-3.83324 4.29994,-5.5327c1.31103,-1.69946 3.58943,-4.64631 5.06286,-6.54888c1.47365,-1.90257 2.87173,-3.88025 3.10744,-4.39486c0.38258,-0.83579 0.44106,-1.4786 0.54632,-6.02909c0.10931,-4.72099 0.15137,-5.15665 0.57466,-5.9533zM264.27127,245.6775c1.24671,-1.60073 2.91648,-3.7336 3.71044,-4.73988c0.79373,-1.00605 1.56541,-1.80135 1.71476,-1.76716c0.23414,0.05353 5.99851,7.25983 6.86466,8.58189c0.07107,0.10841 0.139,0.17746 0.16981,0.26045c0.12101,0.32725 -0.33962,0.86975 -3.4862,4.90384c-1.17541,1.50739 -3.41423,4.38991 -4.97491,6.40583c-3.10204,4.00688 -4.00508,4.79138 -5.99356,5.20793c-1.49524,0.31331 -2.80313,0.08524 -4.13868,-0.72176c-0.88797,-0.5362 -1.59758,-1.3189 -3.62137,-3.99361c-5.88718,-7.77961 -12.06741,-15.8406 -12.53996,-16.35566c-0.2798,-0.30521 -0.44623,-0.65585 -0.36976,-0.77956c0.08569,-0.13855 0.99413,-0.22469 2.36702,-0.22469c2.57169,0 4.79228,-0.23863 8.0882,-0.86907c2.19315,-0.4197 2.36049,-0.42554 2.72328,-0.09739c0.21232,0.19253 1.59353,1.93675 3.06875,3.8762c2.20868,2.90322 2.77434,3.52623 3.20213,3.52758c0.28587,0.00067 0.61627,-0.06748 0.7339,-0.15137c0.11808,-0.08412 1.23434,-1.46263 2.48149,-3.06358z" data-paper-data="{&quot;isPathIcon&quot;:true}" color="rgb(0, 0, 0)" fill="rgb(150, 60, 189)" fill-rule="evenodd" stroke="none" stroke-miterlimit="10"/>
            </g>
          </g>
        </g>
      </g>
    </g>
  </g>
</svg>